<svg width="108" height="17" viewBox="0 0 108 17" fill="none" xmlns="http://www.w3.org/2000/svg">
<path d="M0.494306 0.495096L0.917998 0H1.836H3.52605L4.94306 13.9334L12.1458 9.61902L10.5923 0H15.156V8.42591V12.8243V13.3543V13.8842V14.9441L14.3349 15.8431L13.3463 16.9747H11.369H7.69706H3.84853H1.92426L0.848737 15.7948L0 14.8352V12.6957V8.41664V4.10223V2.19257V1.06092L0.494306 0.495096Z" fill="white"/>
<path d="M83.0354 2.96973L82.0452 13.2949L78.5237 16.9727H68.2551V0H79.2278L83.0354 2.96973ZM71.2962 3.11133V13.7197H76.3362L78.7698 12.9414L79.2171 10.9609V3.11133H71.2962Z" fill="white"/>
<path d="M26.9201 4.29205L27.5168 4.77643L27.3713 5.73639L27.0793 7.65729L26.4963 11.4991L27.6623 16.9581H25.3312L20.7209 11.9766H18.548V16.9581H16.6398V3.81549H26.2844L26.9201 4.29205ZM18.548 9.53912H22.717L24.7297 9.2276L25.0998 8.43658V5.29889H18.548V9.53912Z" fill="white"/>
<path d="M39.4262 4.61041L40.1684 5.45807V8.7442L39.1088 10.3868L40.1684 12.0294V15.3155L39.4262 16.2159L38.7905 16.9581H29.146V3.81549H38.7905L39.4262 4.61041ZM31.3715 10.8106V15.4737H37.1215L37.4653 14.9971L37.9428 14.3077V11.9766L37.4653 11.2344L37.1215 10.8106H31.3715ZM31.3715 8.79694H37.1215L37.7309 8.53229L37.9428 8.35944V5.73639L37.7309 5.5108L37.5317 5.29889H31.3715V8.79694Z" fill="white"/>
<path d="M52.0921 4.76959L52.6751 5.45807V16.9581H51.1389L49.8665 11.3936H44.4612L43.1897 16.9581H41.6526V5.45807L42.3421 4.66315L43.0305 3.81549H51.2971L52.0921 4.76959ZM44.4085 6.09381V8.2403L44.7268 8.58502L45.0842 8.95612H49.8137V6.80963L49.5491 6.4649L49.138 6.09381H44.4085Z" fill="white"/>
<path d="M59.7889 4.55768L60.3328 5.29889L61.4187 6.78326L63.5916 9.96295V3.81549H65.1814V16.1368L64.8641 16.4805L64.493 16.9581H63.4061V15.8194L62.4783 14.6807L60.6238 12.4044L56.9148 7.52545V16.9581H54.159V5.45807L54.9012 4.61041L55.5369 3.81549H59.7889V4.55768Z" fill="white"/>
<path d="M94.9115 4.66315L95.4935 5.45807V16.9581H85.849L85.1078 16.0567L84.471 15.3155V3.81549H94.1166L94.9115 4.66315ZM86.7601 6.95221L85.4251 10.1749L86.7601 13.3975L89.9828 14.7325L93.2054 13.3975L94.5404 10.1749L93.2054 6.95221L89.9828 5.61725L86.7601 6.95221Z" fill="white"/>
<path d="M107.629 4.18658L108 4.63678V5.82916H100.581V8.47858H108V16.9581H98.3554L97.7724 16.2686L96.9774 15.3145V14.5206H104.396V11.8702H96.9774V3.81549H107.311L107.629 4.18658Z" fill="white"/>
</svg>
